<?xml version="1.0" standalone="yes"?>
<svg xmlns="http://www.w3.org/2000/svg" width="1600" height="1200">
<path style="fill:#ffffff; stroke:none;" d="M0 0L0 1200L1600 1200L1600 0L0 0z"/>
<path style="fill:#a7c5f7; stroke:none;" d="M704.667 429.333L705.333 429.667L704.667 429.333z"/>
<path style="fill:#f26dc7; stroke:none;" d="M630 501C659.767 501 694.418 497.104 722 504C738.931 508.233 753.694 517.271 768 528L792 546C795.193 548.394 799.542 550.831 799 553C832.899 532.08 867.645 519 908 519C902.461 516.675 894.999 517.067 889 515.789C878.893 513.637 868.959 509.7 860 504.573C840.273 493.282 823.536 477.734 805 464.721C766.821 437.918 712.306 415.962 669 442.814C660.105 448.329 652.578 455.705 646.236 464C637.947 474.843 632.744 487.707 630 501z"/>
<path style="fill:#a7c5f7; stroke:none;" d="M708.667 429.333L709.333 429.667L708.667 429.333M699 430L700 431L699 430M718 430L719 431L718 430M725 431L726 432L725 431M691 432L692 433L691 432M730.667 432.333L731.333 432.667L730.667 432.333M688 433L689 434L688 433M735 433L736 434L735 433M685 434L686 435L685 434M740 434L741 435L740 434M747 436L748 437L747 436M678 437L679 438L678 437M750 437L751 438L750 437M676 438L677 439L676 438M759 440L760 441L759 440M671 441L672 442L671 441M764 442L765 443L764 442M769 444L770 445L769 444M771 445L772 446L771 445M662 447L663 448L662 447M781 450L782 451L781 450M783 451L784 452L783 451M790 455L791 456L790 455M648 461L649 462L648 461M647 462L648 463L647 462M801 462L802 463L801 462M644 466L645 467L644 466M808 467L809 468L808 467M642 469L643 470L642 469M812 470L813 471L812 470M816 473L817 474L816 473M639 474L640 475L639 474M638 476L639 477L638 476M820 476L821 477L820 476M637 478L638 479L637 478M636 480L637 481L636 480M825 480L826 481L825 480M829 483L830 484L829 483M634 485L635 486L634 485M834 487L835 488L834 487M838 490L839 491L838 490M842 493L843 494L842 493M631 494L632 495L631 494M845 495L846 496L845 495M630 498L631 499L630 498M851 499L852 500L851 499M703.667 501.333L704.333 501.667L703.667 501.333M854 501L855 502L854 501M712 502L713 503L712 502M717 503L718 504L717 503M722 504L723 505L722 504M859 504L860 505L859 504M729 506L730 507L729 506M732 507L733 508L732 507M867 508L868 509L867 508M737 509L738 510L737 509M869 509L870 510L869 509M742 511L743 512L742 511M874 511L875 512L874 511M744 512L745 513L744 512M877 512L878 513L877 512M880 513L881 514L880 513M883 514L884 515L883 514M887 515L888 516L887 515M892 516L893 517L892 516M753 517L754 518L753 517M898.667 517.333L899.333 517.667L898.667 517.333M908 518L908 519L916 519L908 518M756 519L757 520L756 519z"/>
<path style="fill:#4f35d2; stroke:none;" d="M629 609L629 681C668.121 681 708.414 684.18 746 671.139C767.177 663.791 786.143 652.504 804 639.105C821.001 626.348 837.462 610.729 857 601.864C892.297 585.85 933.217 591 971 591L971 519C928.05 519 883.078 514.995 842 530.053C800.042 545.434 772.015 581.397 732 599.138C699.873 613.382 663.262 609 629 609z"/>
<path style="fill:#f26dc7; stroke:none;" d="M971 519L971 591L972 591L972 542L971 519z"/>
<path style="fill:#a7c5f7; stroke:none;" d="M759 521L760 522L759 521M762 523L763 524L762 523M765 525L766 526L765 525M769 528L770 529L769 528M773 531L774 532L773 531M782 538L783 539L782 538M791 545L792 546L791 545M795 548L796 549L795 548M799 551L800 552L799 551M797 553L798 554L797 553z"/>
<path style="fill:#f26dc7; stroke:none;" d="M796 554L797 555L796 554z"/>
<path style="fill:#a7c5f7; stroke:none;" d="M794 555L795 556L794 555z"/>
<path style="fill:#f26dc7; stroke:none;" d="M793 556L794 557L793 556z"/>
<path style="fill:#a7c5f7; stroke:none;" d="M791 557L792 558L791 557M790 558L791 559L790 558z"/>
<path style="fill:#f26dc7; stroke:none;" d="M789 559L790 560L789 559z"/>
<path style="fill:#a7c5f7; stroke:none;" d="M787 560L788 561L787 560M786 561L787 562L786 561z"/>
<path style="fill:#f26dc7; stroke:none;" d="M785 562L786 563L785 562z"/>
<path style="fill:#a7c5f7; stroke:none;" d="M783 563L784 564L783 563M782 564L783 565L782 564z"/>
<path style="fill:#f26dc7; stroke:none;" d="M781 565L782 566L781 565z"/>
<path style="fill:#a7c5f7; stroke:none;" d="M779 566L780 567L779 566M778 567L779 568L778 567z"/>
<path style="fill:#f26dc7; stroke:none;" d="M777 568L778 569L777 568z"/>
<path style="fill:#a7c5f7; stroke:none;" d="M774 570L775 571L774 570M773 571L774 572L773 571z"/>
<path style="fill:#f26dc7; stroke:none;" d="M772 572L773 573L772 572z"/>
<path style="fill:#a7c5f7; stroke:none;" d="M770 573L771 574L770 573M769 574L770 575L769 574M768 575L769 576L768 575M765 577L766 578L765 577M764 578L765 579L764 578z"/>
<path style="fill:#f26dc7; stroke:none;" d="M763 579L764 580L763 579z"/>
<path style="fill:#a7c5f7; stroke:none;" d="M761 580L762 581L761 580M760 581L761 582L760 581z"/>
<path style="fill:#f26dc7; stroke:none;" d="M759 582L760 583L759 582z"/>
<path style="fill:#a7c5f7; stroke:none;" d="M757 583L758 584L757 583M756 584L757 585L756 584M753 586L754 587L753 586z"/>
<path style="fill:#f26dc7; stroke:none;" d="M752 587L753 588L752 587z"/>
<path style="fill:#a7c5f7; stroke:none;" d="M750 588L751 589L750 588M748 589L749 590L748 589M747 590L748 591L747 590M745 591L746 592L745 591z"/>
<path style="fill:#f26dc7; stroke:none;" d="M895 591L896 592L895 591z"/>
<path style="fill:#a7c5f7; stroke:none;" d="M896 591L896 592L903 592L896 591M744 592L745 593L744 592z"/>
<path style="fill:#f26dc7; stroke:none;" d="M887 592L888 593L887 592z"/>
<path style="fill:#a7c5f7; stroke:none;" d="M888 592L888 593L891 593L888 592M742 593L743 594L742 593z"/>
<path style="fill:#f26dc7; stroke:none;" d="M881 593L882 594L881 593z"/>
<path style="fill:#a7c5f7; stroke:none;" d="M882 593L882 594L885 594L882 593M740 594L741 595L740 594z"/>
<path style="fill:#f26dc7; stroke:none;" d="M877 594L878 595L877 594z"/>
<path style="fill:#a7c5f7; stroke:none;" d="M878.667 594.333L879.333 594.667L878.667 594.333z"/>
<path style="fill:#f26dc7; stroke:none;" d="M739 595L740 596L739 595M873 595L874 596L873 595z"/>
<path style="fill:#a7c5f7; stroke:none;" d="M874 595L875 596L874 595M737 596L738 597L737 596z"/>
<path style="fill:#f26dc7; stroke:none;" d="M870 596L871 597L870 596z"/>
<path style="fill:#a7c5f7; stroke:none;" d="M871 596L872 597L871 596M735 597L736 598L735 597z"/>
<path style="fill:#f26dc7; stroke:none;" d="M867 597L868 598L867 597z"/>
<path style="fill:#a7c5f7; stroke:none;" d="M868 597L869 598L868 597M733 598L734 599L733 598z"/>
<path style="fill:#f26dc7; stroke:none;" d="M864 598L865 599L864 598z"/>
<path style="fill:#a7c5f7; stroke:none;" d="M865 598L866 599L865 598M730 599L731 600L730 599z"/>
<path style="fill:#f26dc7; stroke:none;" d="M731 599L732 600L731 599z"/>
<path style="fill:#a7c5f7; stroke:none;" d="M862 599L863 600L862 599M728 600L729 601L728 600M860 600L861 601L860 600M725.667 601.333L726.333 601.667L725.667 601.333z"/>
<path style="fill:#f26dc7; stroke:none;" d="M857 601L858 602L857 601z"/>
<path style="fill:#a7c5f7; stroke:none;" d="M858 601L859 602L858 601M723 602L724 603L723 602z"/>
<path style="fill:#f26dc7; stroke:none;" d="M855 602L856 603L855 602z"/>
<path style="fill:#a7c5f7; stroke:none;" d="M856 602L857 603L856 602M719.667 603.333L720.333 603.667L719.667 603.333z"/>
<path style="fill:#f26dc7; stroke:none;" d="M853 603L854 604L853 603z"/>
<path style="fill:#a7c5f7; stroke:none;" d="M854 603L855 604L854 603M716.667 604.333L717.333 604.667L716.667 604.333z"/>
<path style="fill:#f26dc7; stroke:none;" d="M851 604L852 605L851 604z"/>
<path style="fill:#a7c5f7; stroke:none;" d="M852 604L853 605L852 604M712.667 605.333L713.333 605.667L712.667 605.333z"/>
<path style="fill:#f26dc7; stroke:none;" d="M714 605L715 606L714 605z"/>
<path style="fill:#a7c5f7; stroke:none;" d="M850 605L851 606L850 605M707 606L707 607L710 607L707 606M848 606L849 607L848 606M701 607L701 608L704 608L701 607z"/>
<path style="fill:#f26dc7; stroke:none;" d="M704 607L705 608L704 607M846 607L847 608L846 607z"/>
<path style="fill:#a7c5f7; stroke:none;" d="M691 608L691 609L697 609L691 608z"/>
<path style="fill:#f26dc7; stroke:none;" d="M697 608L698 609L697 608z"/>
<path style="fill:#a7c5f7; stroke:none;" d="M845 608L846 609L845 608z"/>
<path style="fill:#28a3fd; stroke:none;" d="M628 609L628 681L629 681L629 632L628 609z"/>
<path style="fill:#f26dc7; stroke:none;" d="M843 609L844 610L843 609z"/>
<path style="fill:#a7c5f7; stroke:none;" d="M842 610L843 611L842 610M840 611L841 612L840 611M839 612L840 613L839 612M837 613L838 614L837 613M836 614L837 615L836 614z"/>
<path style="fill:#f26dc7; stroke:none;" d="M834 615L835 616L834 615z"/>
<path style="fill:#a7c5f7; stroke:none;" d="M833 616L834 617L833 616M832 617L833 618L832 617z"/>
<path style="fill:#f26dc7; stroke:none;" d="M830 618L831 619L830 618z"/>
<path style="fill:#a7c5f7; stroke:none;" d="M829 619L830 620L829 619M826 621L827 622L826 621M825 622L826 623L825 622M824 623L825 624L824 623z"/>
<path style="fill:#f26dc7; stroke:none;" d="M822 624L823 625L822 624z"/>
<path style="fill:#a7c5f7; stroke:none;" d="M821 625L822 626L821 625M820 626L821 627L820 626z"/>
<path style="fill:#f26dc7; stroke:none;" d="M818 627L819 628L818 627z"/>
<path style="fill:#a7c5f7; stroke:none;" d="M817 628L818 629L817 628M816 629L817 630L816 629M815 630L816 631L815 630z"/>
<path style="fill:#f26dc7; stroke:none;" d="M813 631L814 632L813 631z"/>
<path style="fill:#a7c5f7; stroke:none;" d="M812 632L813 633L812 632M811 633L812 634L811 633z"/>
<path style="fill:#f26dc7; stroke:none;" d="M809 634L810 635L809 634z"/>
<path style="fill:#a7c5f7; stroke:none;" d="M808 635L809 636L808 635M807 636L808 637L807 636M804 638L805 639L804 638M803 639L804 640L803 639M800 641L801 642L800 641M799 642L800 643L799 642z"/>
<path style="fill:#f26dc7; stroke:none;" d="M797 643L798 644L797 643z"/>
<path style="fill:#a7c5f7; stroke:none;" d="M796 644L797 645L796 644z"/>
<path style="fill:#28a3fd; stroke:none;" d="M795 645C766.312 667.048 727.25 680.7 691 681L691 682C710.201 682.002 728.683 688.607 745 698.45C759.207 707.021 771.76 718.175 785 728.105C824.078 757.413 883.308 786.904 930 757.934C938.474 752.677 946.01 745.89 952.112 738C960.419 727.258 967.874 713.781 969 700C934.122 700 894.831 704.613 862 690.573C836.677 679.743 818.097 659.256 795 645z"/>
<path style="fill:#a7c5f7; stroke:none;" d="M797 646L798 647L797 646M798 647L799 648L798 647M801 649L802 650L801 649M805 652L806 653L805 652M809 655L810 656L809 655M810 656L811 657L810 656M813 658L814 659L813 658M814 659L815 660L814 659M818 662L819 663L818 662M819 663L820 664L819 663M822 665L823 666L822 665M823 666L824 667L823 666M827 669L828 670L827 669M828 670L829 671L828 670M830 671L831 672L830 671M831 672L832 673L831 672M834 674L835 675L834 674M835 675L836 676L835 675M838 677L839 678L838 677M841 679L842 680L841 679M843 680L844 681L843 680M628 681L628 682L691 682L671 681L628 681M844 681L845 682L844 681M698 682L698 683L702 683L698 682M846 682L847 683L846 682M705 683L705 684L708 684L705 683M847 683L848 684L847 683M710.667 684.333L711.333 684.667L710.667 684.333M849 684L850 685L849 684M715 685L716 686L715 685M851 685L852 686L851 685M718.667 686.333L719.333 686.667L718.667 686.333M853 686L854 687L853 686M721.667 687.333L722.333 687.667L721.667 687.333M855 687L856 688L855 687M724 688L725 689L724 688M857 688L858 689L857 688M727 689L728 690L727 689M859 689L860 690L859 689M729 690L730 691L729 690M861 690L862 691L861 690M732 691L733 692L732 691M864 691L865 692L864 691M734 692L735 693L734 692M866.667 692.333L867.333 692.667L866.667 692.333M736 693L737 694L736 693M869.667 693.333L870.333 693.667L869.667 693.333M738 694L739 695L738 694M872.667 694.333L873.333 694.667L872.667 694.333M876.667 695.333L877.333 695.667L876.667 695.333M741 696L742 697L741 696M880.667 696.333L881.333 696.667L880.667 696.333M743 697L744 698L743 697M885 697L885 698L888 698L885 697M745 698L746 699L745 698M892 698L892 699L896 699L892 698M746 699L747 700L746 699M906 699L906 700L953 700C958.062 700 965.943 698.284 969 703L970 703L970 699L906 699M748 700L749 701L748 700M749 701L750 702L749 701M751 702L752 703L751 702M752 703L753 704L752 703M754 704L755 705L754 704M968 704L968 707L969 707L968 704M755 705L756 706L755 705M758 707L759 708L758 707M759 708L760 709L759 708M967.333 708.667L967.667 709.333L967.333 708.667M762 710L763 711L762 710M966.333 711.667L966.667 712.333L966.333 711.667M766 713L767 714L766 713M767 714L768 715L767 714M965.333 714.667L965.667 715.333L965.333 714.667M770 716L771 717L770 716M964.333 716.667L964.667 717.333L964.333 716.667M771 717L772 718L771 717M963 719L964 720L963 719M775 720L776 721L775 720M776 721L777 722L776 721M962 721L963 722L962 721M779 723L780 724L779 723M961 723L962 724L961 723M780 724L781 725L780 724M960 725L961 726L960 725M784 727L785 728L784 727M959 727L960 728L959 727M785 728L786 729L785 728M958.333 728.667L958.667 729.333L958.333 728.667M788 730L789 731L788 730M957 730L958 731L957 730M789 731L790 732L789 731M791 732L792 733L791 732M956 732L957 733L956 732M792 733L793 734L792 733M955 733L956 734L955 733M954.333 734.667L954.667 735.333L954.333 734.667M795 735L796 736L795 735M796 736L797 737L796 736M953 736L954 737L953 736M798 737L799 738L798 737M952 737L953 738L952 737M799 738L800 739L799 738M951 738L952 739L951 738M801 739L802 740L801 739M802 740L803 741L802 740M950 740L951 741L950 740M804 741L805 742L804 741M949 741L950 742L949 741M948 742L949 743L948 742M807 743L808 744L807 743M947 743L948 744L947 743M809 744L810 745L809 744M946 744L947 745L946 744M810 745L811 746L810 745M945 745L946 746L945 745M812 746L813 747L812 746M944 746L945 747L944 746M814 747L815 748L814 747M943 747L944 748L943 747M816 748L817 749L816 748M942 748L943 749L942 748M817 749L818 750L817 749M941 749L942 750L941 749M819 750L820 751L819 750M940 750L941 751L940 750M821 751L822 752L821 751M939 751L940 752L939 751M823 752L824 753L823 752M664 755C678.18 774.964 704.618 778.557 727 780.089C775.028 783.379 825.972 783.379 874 780.089C898.435 778.416 923.819 773.551 939 752C926.202 757.383 915.944 765.698 902 769.102C869.464 777.043 831.386 772 798 772C765.806 772 729.518 776.628 698 769.575C685.424 766.761 675.718 759.435 664 755M662 753L663 754L662 753M825 753L826 754L825 753M663 754L664 755L663 754M827 754L828 755L827 754M830 755L831 756L830 755M832 756L833 757L832 756M834 757L835 758L834 757M837 758L838 759L837 758M839.667 759.333L840.333 759.667L839.667 759.333M842 760L843 761L842 760M845 761L846 762L845 761M848 762L849 763L848 762M851.667 763.333L852.333 763.667L851.667 763.333M855 764L856 765L855 764M858.667 765.333L859.333 765.667L858.667 765.333M862.667 766.333L863.333 766.667L862.667 766.333M867.667 767.333L868.333 767.667L867.667 767.333M872 768L872 769L875 769L872 768M878 769L878 770L882 770L878 769M886 770L886 771L891 771L886 770z"/>
</svg>
